# xmcd
#
# Track frame offsets: 
#        150
#        27028
#        44684
#        73419
#        104304
#        121816
#        159546
#        174127
#        203819
#        240761
#
# Disc length: 3480 seconds
#
# Revision: 1
# Processed by: cddbd v1.5.2PL0 Copyright (c) Steve Scherf et al.
# Submitted via: ExactAudioCopy v0.95b4
#
DISCID=7b0d960a
DTITLE=Jessy Martens and Band - Live at Blues Baltica
DYEAR=2011
DGENRE=Blues
TTITLE0=Good Morning Blues
TTITLE1=Never Make Your Move Too Soon
TTITLE2=Touch My Blues Away
TTITLE3=Let The Juke Joint Jump
TTITLE4=I Don't Need No Doctor
TTITLE5=Love Me Like A Man
TTITLE6=That's What Love Will Make You Do
TTITLE7=Trying To Make A Living
TTITLE8=Summertime
TTITLE9=L.A. Song
EXTD=
EXTT0=
EXTT1=
EXTT2=
EXTT3=
EXTT4=
EXTT5=
EXTT6=
EXTT7=
EXTT8=
EXTT9=
PLAYORDER=
